<svg height="100" viewBox="0 0 100 100" width="100" xmlns="http://www.w3.org/2000/svg"><path d="m18.84 63.12 13.51-1.57v-23.1l-13.51-1.57z" fill="#5294cf"/><path d="m81.25 38.62-6.27 2.49-35.16-5.48 10.17-26.63z" fill="#19486f"/><path d="m19.44 38.69 30.56-17.15 10.23 14.11-27.88 4.33z" fill="#19486f"/><path d="m49.99 33.6-33.95 6.79v-14.42l33.95-16.97 16.51 18.94z" fill="#205b99"/><path d="m22.84 25.89-6.8 2.99v45.15l6.8 3.39z" fill="#205b99"/><path d="m83.96 25.98-33.97-16.98v24.6l33.97 6.79z" fill="#5294cf"/><path d="m17.16 61.54 32.83 29.46 10.24-26.65-27.88-4.33z" fill="#99bce3"/><path d="m81.67 61.42-6.3-2.59-35.55 5.54 10.17 25.85z" fill="#99bce3"/><path d="m81.25 61.38-13.55-1.36v-20.04l13.55-1.36z" fill="#205b99"/><path d="m49.99 66.4 14.68-16.4-14.68-16.4-18.08 16.4z" fill="#205b99"/><path d="m68.07 50-18.08 16.4v-32.8z" fill="#5294cf"/><path d="m16.04 59.61 33.95 6.79 18.64 8.07-18.64 16.53-33.95-16.97z" fill="#205b99"/><g fill="#5294cf"><path d="m83.96 74.02-33.97 16.98v-24.6l33.97-6.79z"/><path d="m77.14 77.42 6.82-3.4v-48.04l-6.82-3.41z"/></g></svg>